here is the ubiquiti logo
<svg viewBox="0 0 256 256" fill="none" xmlns="http://www.w3.org/2000/svg" width="32px" height="32px" class="Logo-module_logo__2wFoO Logo-module_logo-flat__CO--r logo-light" lightclassname="Logo-module_motif-active__3MNLk" darkclassname="" prefixid="7f2cd425-30dd-42c7-9a55-bbd10c8c97c2"><path fill="url(#7f2cd425-30dd-42c7-9a55-bbd10c8c97c2__5a7db5)" d="M0 0h256v256H0z" role="bgSquare" class="Logo-module_motif-active__3MNLk"></path><path d="M187.998 67h-7.999v7.999h7.999V67Z" fill="url(#7f2cd425-30dd-42c7-9a55-bbd10c8c97c2__7a4fd5)" role="bgSquare" class="Logo-module_motif-active__3MNLk"></path><path d="M160.01 123.02v-16.026l.004.005h15.993v15.997H192v5.071c0 5.861-.498 12.806-1.644 18.26-.642 3.048-1.615 6.077-2.756 8.986-1.169 2.976-2.516 5.827-3.982 8.382a62.78 62.78 0 0 1-6.695 9.547l-.136.158-.224.262c-.617.724-1.227 1.44-1.898 2.139a63.215 63.215 0 0 1-2.415 2.415c-10.237 9.859-23.575 16.017-37.521 17.431-1.678.172-5.047.35-6.729.35-1.687-.005-5.051-.178-6.729-.35-13.946-1.414-27.284-7.577-37.52-17.431a63.155 63.155 0 0 1-2.416-2.415c-.704-.729-1.339-1.477-1.98-2.233l-.002-.002-.276-.324a62.662 62.662 0 0 1-6.695-9.547c-1.466-2.559-2.813-5.406-3.983-8.382-1.14-2.909-2.113-5.938-2.755-8.986-1.146-5.459-1.644-12.399-1.644-18.26V68.002h31.99v55.018s0 4.218.053 5.598l.012.322v.002c.067 1.785.133 3.534.319 5.274.527 4.941 1.62 9.628 3.872 13.592.652 1.145 1.313 2.257 2.104 3.311 4.812 6.417 12.135 11.234 21.27 12.576 1.087.158 3.282.297 4.38.297 1.098 0 3.292-.139 4.38-.297 9.135-1.342 16.458-6.159 21.27-12.576.795-1.054 1.452-2.166 2.104-3.311 2.252-3.964 3.345-8.651 3.872-13.592.186-1.744.252-3.495.319-5.284l.012-.314c.053-1.38.053-5.598.053-5.598Z" fill="url(#7f2cd425-30dd-42c7-9a55-bbd10c8c97c2__cb3ff6)" role="bgSquare" class="Logo-module_motif-active__3MNLk"></path><path d="M164.002 79h12v11.996H192v15.998h-15.998V91.001h-12v-12Z" fill="url(#7f2cd425-30dd-42c7-9a55-bbd10c8c97c2__b25031)" role="bgSquare" class="Logo-module_motif-active__3MNLk"></path><defs><linearGradient id="7f2cd425-30dd-42c7-9a55-bbd10c8c97c2__7a4fd5" x1="106.283" y1="265.313" x2="193.978" y2="153.158" gradientUnits="userSpaceOnUse"><stop stop-color="#C2C4CE"></stop><stop offset="0.397" stop-color="#D6D9E2"></stop><stop offset="1" stop-color="#fff"></stop></linearGradient><linearGradient id="7f2cd425-30dd-42c7-9a55-bbd10c8c97c2__cb3ff6" x1="106.283" y1="265.313" x2="193.978" y2="153.158" gradientUnits="userSpaceOnUse"><stop stop-color="#C2C4CE"></stop><stop offset="0.397" stop-color="#D6D9E2"></stop><stop offset="1" stop-color="#fff"></stop></linearGradient><linearGradient id="7f2cd425-30dd-42c7-9a55-bbd10c8c97c2__b25031" x1="106.283" y1="265.313" x2="193.978" y2="153.158" gradientUnits="userSpaceOnUse"><stop stop-color="#C2C4CE"></stop><stop offset="0.397" stop-color="#D6D9E2"></stop><stop offset="1" stop-color="#fff"></stop></linearGradient><radialGradient id="7f2cd425-30dd-42c7-9a55-bbd10c8c97c2__5a7db5" cx="0" cy="0" r="1" gradientUnits="userSpaceOnUse" gradientTransform="matrix(0 256 -256 0 128 0)"><stop stop-color="#006FFF"></stop><stop offset="1" stop-color="#003C9E"></stop></radialGradient></defs><path d="M0 80c0-28.003 0-42.004 5.45-52.7A50 50 0 0 1 27.3 5.45C37.996 0 51.998 0 80 0h96c28.003 0 42.004 0 52.7 5.45a49.995 49.995 0 0 1 21.85 21.85C256 37.996 256 51.998 256 80v96c0 28.003 0 42.004-5.45 52.7a49.99 49.99 0 0 1-21.85 21.85C218.004 256 204.003 256 176 256H80c-28.003 0-42.004 0-52.7-5.45A49.995 49.995 0 0 1 5.45 228.7C0 218.004 0 204.003 0 176V80Z" fill="url(#7f2cd425-30dd-42c7-9a55-bbd10c8c97c2__020e0a)" role="bgRoundedSquare" class="Logo-module_motif-active__3MNLk"></path><path d="M187.998 67h-7.999v7.999h7.999V67Z" fill="url(#7f2cd425-30dd-42c7-9a55-bbd10c8c97c2__12edab)" role="bgRoundedSquare" class="Logo-module_motif-active__3MNLk"></path><path d="M160.01 123.02v-16.026l.004.005h15.993v15.997H192v5.071c0 5.861-.498 12.806-1.644 18.26-.642 3.048-1.615 6.077-2.756 8.986-1.169 2.976-2.516 5.827-3.982 8.382a62.78 62.78 0 0 1-6.695 9.547l-.136.158-.224.262c-.617.724-1.227 1.44-1.898 2.139a63.215 63.215 0 0 1-2.415 2.415c-10.237 9.859-23.575 16.017-37.521 17.431-1.678.172-5.047.35-6.729.35-1.687-.005-5.051-.178-6.729-.35-13.946-1.414-27.284-7.577-37.52-17.431a63.155 63.155 0 0 1-2.416-2.415c-.704-.729-1.339-1.477-1.98-2.233l-.002-.002-.276-.324a62.662 62.662 0 0 1-6.695-9.547c-1.466-2.559-2.813-5.406-3.983-8.382-1.14-2.909-2.113-5.938-2.755-8.986-1.146-5.459-1.644-12.399-1.644-18.26V68.002h31.99v55.018s0 4.218.053 5.598l.012.322v.002c.067 1.785.133 3.534.319 5.274.527 4.941 1.62 9.628 3.872 13.592.652 1.145 1.313 2.257 2.104 3.311 4.812 6.417 12.135 11.234 21.27 12.576 1.087.158 3.282.297 4.38.297 1.098 0 3.292-.139 4.38-.297 9.135-1.342 16.458-6.159 21.27-12.576.795-1.054 1.452-2.166 2.104-3.311 2.252-3.964 3.345-8.651 3.872-13.592.186-1.744.252-3.495.319-5.284l.012-.314c.053-1.38.053-5.598.053-5.598Z" fill="url(#7f2cd425-30dd-42c7-9a55-bbd10c8c97c2__e6f81a)" role="bgRoundedSquare" class="Logo-module_motif-active__3MNLk"></path><path d="M164.002 79h12v11.996H192v15.998h-15.998V91.001h-12v-12Z" fill="url(#7f2cd425-30dd-42c7-9a55-bbd10c8c97c2__cf228b)" role="bgRoundedSquare" class="Logo-module_motif-active__3MNLk"></path><defs><linearGradient id="7f2cd425-30dd-42c7-9a55-bbd10c8c97c2__12edab" x1="106.283" y1="265.313" x2="193.978" y2="153.158" gradientUnits="userSpaceOnUse"><stop stop-color="#C2C4CE"></stop><stop offset="0.397" stop-color="#D6D9E2"></stop><stop offset="1" stop-color="#fff"></stop></linearGradient><linearGradient id="7f2cd425-30dd-42c7-9a55-bbd10c8c97c2__e6f81a" x1="106.283" y1="265.313" x2="193.978" y2="153.158" gradientUnits="userSpaceOnUse"><stop stop-color="#C2C4CE"></stop><stop offset="0.397" stop-color="#D6D9E2"></stop><stop offset="1" stop-color="#fff"></stop></linearGradient><linearGradient id="7f2cd425-30dd-42c7-9a55-bbd10c8c97c2__cf228b" x1="106.283" y1="265.313" x2="193.978" y2="153.158" gradientUnits="userSpaceOnUse"><stop stop-color="#C2C4CE"></stop><stop offset="0.397" stop-color="#D6D9E2"></stop><stop offset="1" stop-color="#fff"></stop></linearGradient><radialGradient id="7f2cd425-30dd-42c7-9a55-bbd10c8c97c2__020e0a" cx="0" cy="0" r="1" gradientUnits="userSpaceOnUse" gradientTransform="matrix(0 256 -256 0 128 0)"><stop stop-color="#006FFF"></stop><stop offset="1" stop-color="#003C9E"></stop></radialGradient></defs><path d="M187.998 67h-7.999v7.999h7.999V67Zm-27.988 56.02v-16.026l.004.005h15.993v15.997H192v5.071c0 5.861-.498 12.806-1.644 18.26-.642 3.048-1.615 6.077-2.756 8.986-1.169 2.976-2.516 5.827-3.982 8.382a62.78 62.78 0 0 1-6.695 9.547l-.136.158-.224.262c-.617.724-1.227 1.44-1.898 2.139a63.215 63.215 0 0 1-2.415 2.415c-10.237 9.859-23.575 16.017-37.521 17.431-1.678.172-5.047.35-6.729.35-1.687-.005-5.051-.178-6.729-.35-13.946-1.414-27.284-7.577-37.52-17.431a63.155 63.155 0 0 1-2.416-2.415c-.704-.729-1.339-1.477-1.98-2.233l-.002-.002-.276-.324a62.662 62.662 0 0 1-6.695-9.547c-1.466-2.559-2.813-5.406-3.983-8.382-1.14-2.909-2.113-5.938-2.755-8.986-1.146-5.459-1.644-12.399-1.644-18.26V68.002h31.99v55.018s0 4.218.053 5.598l.012.322v.002c.067 1.785.133 3.534.319 5.274.527 4.941 1.62 9.628 3.872 13.592.652 1.145 1.313 2.257 2.104 3.311 4.812 6.417 12.135 11.234 21.27 12.576 1.087.158 3.282.297 4.38.297 1.098 0 3.292-.139 4.38-.297 9.135-1.342 16.458-6.159 21.27-12.576.795-1.054 1.452-2.166 2.104-3.311 2.252-3.964 3.345-8.651 3.872-13.592.186-1.744.252-3.495.319-5.284l.012-.314c.053-1.38.053-5.598.053-5.598ZM164.002 79h12v11.996H192v15.998h-15.998V91.001h-12v-12Z" fill="#006FFF" role="aqua" class="Logo-module_motif-active__3MNLk"></path><path d="M187.998 67h-7.999v7.999h7.999V67Zm-27.988 56.02v-16.026l.004.005h15.993v15.997H192v5.071c0 5.861-.498 12.806-1.644 18.26-.642 3.048-1.615 6.077-2.756 8.986-1.169 2.976-2.516 5.827-3.982 8.382a62.78 62.78 0 0 1-6.695 9.547l-.136.158-.224.262c-.617.724-1.227 1.44-1.898 2.139a63.215 63.215 0 0 1-2.415 2.415c-10.237 9.859-23.575 16.017-37.521 17.431-1.678.172-5.047.35-6.729.35-1.687-.005-5.051-.178-6.729-.35-13.946-1.414-27.284-7.577-37.52-17.431a63.155 63.155 0 0 1-2.416-2.415c-.704-.729-1.339-1.477-1.98-2.233l-.002-.002-.276-.324a62.662 62.662 0 0 1-6.695-9.547c-1.466-2.559-2.813-5.406-3.983-8.382-1.14-2.909-2.113-5.938-2.755-8.986-1.146-5.459-1.644-12.399-1.644-18.26V68.002h31.99v55.018s0 4.218.053 5.598l.012.322v.002c.067 1.785.133 3.534.319 5.274.527 4.941 1.62 9.628 3.872 13.592.652 1.145 1.313 2.257 2.104 3.311 4.812 6.417 12.135 11.234 21.27 12.576 1.087.158 3.282.297 4.38.297 1.098 0 3.292-.139 4.38-.297 9.135-1.342 16.458-6.159 21.27-12.576.795-1.054 1.452-2.166 2.104-3.311 2.252-3.964 3.345-8.651 3.872-13.592.186-1.744.252-3.495.319-5.284l.012-.314c.053-1.38.053-5.598.053-5.598ZM164.002 79h12v11.996H192v15.998h-15.998V91.001h-12v-12Z" fill="#50565E" role="neutral" class="Logo-module_motif-active__3MNLk"></path><path d="M187.998 64h-7.999v7.999h7.999V64Zm-27.988 56.02v-16.026l.004.005h15.993v15.997H192v5.071c0 5.861-.498 12.806-1.644 18.26-.642 3.048-1.615 6.077-2.756 8.986-1.169 2.976-2.516 5.827-3.982 8.382a62.78 62.78 0 0 1-6.695 9.547l-.136.158-.224.262c-.617.724-1.227 1.44-1.898 2.139a63.215 63.215 0 0 1-2.415 2.415c-10.237 9.859-23.575 16.017-37.521 17.431-1.678.172-5.047.35-6.729.35-1.687-.005-5.051-.178-6.729-.35-13.946-1.414-27.284-7.577-37.52-17.431a63.155 63.155 0 0 1-2.416-2.415c-.704-.729-1.339-1.477-1.98-2.233l-.002-.002-.276-.324a62.662 62.662 0 0 1-6.695-9.547c-1.466-2.559-2.813-5.406-3.983-8.382-1.14-2.909-2.113-5.938-2.755-8.986-1.146-5.459-1.644-12.399-1.644-18.26V65.002h31.99v55.018s0 4.218.053 5.598l.012.322v.002c.067 1.785.133 3.534.319 5.274.527 4.941 1.62 9.628 3.872 13.592.652 1.145 1.313 2.257 2.104 3.311 4.812 6.417 12.135 11.234 21.27 12.576 1.087.158 3.282.297 4.38.297 1.098 0 3.292-.139 4.38-.297 9.135-1.342 16.458-6.159 21.27-12.576.795-1.054 1.452-2.166 2.104-3.311 2.252-3.964 3.345-8.651 3.872-13.592.186-1.744.252-3.495.319-5.284l.012-.314c.053-1.38.053-5.598.053-5.598ZM164.002 76h12v11.996H192v15.998h-15.998V88.001h-12v-12Z" fill="currentColor" role="flat" class="Logo-module_motif-active__3MNLk"></path><path fill="url(#7f2cd425-30dd-42c7-9a55-bbd10c8c97c2__203c49)" d="M0 0h256v256H0z" role="bgSquare" class=""></path><path d="M187.998 67h-7.999v7.999h7.999V67Z" fill="url(#7f2cd425-30dd-42c7-9a55-bbd10c8c97c2__689eba)" role="bgSquare" class=""></path><path d="M160.01 123.02v-16.026l.004.005h15.993v15.997H192v5.071c0 5.861-.498 12.806-1.644 18.26-.642 3.048-1.615 6.077-2.756 8.986-1.169 2.976-2.516 5.827-3.982 8.382a62.78 62.78 0 0 1-6.695 9.547l-.136.158-.224.262c-.617.724-1.227 1.44-1.898 2.139a63.215 63.215 0 0 1-2.415 2.415c-10.237 9.859-23.575 16.017-37.521 17.431-1.678.172-5.047.35-6.729.35-1.687-.005-5.051-.178-6.729-.35-13.946-1.414-27.284-7.577-37.52-17.431a63.155 63.155 0 0 1-2.416-2.415c-.704-.729-1.339-1.477-1.98-2.233l-.002-.002-.276-.324a62.662 62.662 0 0 1-6.695-9.547c-1.466-2.559-2.813-5.406-3.983-8.382-1.14-2.909-2.113-5.938-2.755-8.986-1.146-5.459-1.644-12.399-1.644-18.26V68.002h31.99v55.018s0 4.218.053 5.598l.012.322v.002c.067 1.785.133 3.534.319 5.274.527 4.941 1.62 9.628 3.872 13.592.652 1.145 1.313 2.257 2.104 3.311 4.812 6.417 12.135 11.234 21.27 12.576 1.087.158 3.282.297 4.38.297 1.098 0 3.292-.139 4.38-.297 9.135-1.342 16.458-6.159 21.27-12.576.795-1.054 1.452-2.166 2.104-3.311 2.252-3.964 3.345-8.651 3.872-13.592.186-1.744.252-3.495.319-5.284l.012-.314c.053-1.38.053-5.598.053-5.598Z" fill="url(#7f2cd425-30dd-42c7-9a55-bbd10c8c97c2__f33866)" role="bgSquare" class=""></path><path d="M164.002 79h12v11.996H192v15.998h-15.998V91.001h-12v-12Z" fill="url(#7f2cd425-30dd-42c7-9a55-bbd10c8c97c2__515bca)" role="bgSquare" class=""></path><defs><linearGradient id="7f2cd425-30dd-42c7-9a55-bbd10c8c97c2__689eba" x1="106.283" y1="265.313" x2="193.978" y2="153.158" gradientUnits="userSpaceOnUse"><stop stop-color="#C2C4CE"></stop><stop offset="0.397" stop-color="#D6D9E2"></stop><stop offset="1" stop-color="#fff"></stop></linearGradient><linearGradient id="7f2cd425-30dd-42c7-9a55-bbd10c8c97c2__f33866" x1="106.283" y1="265.313" x2="193.978" y2="153.158" gradientUnits="userSpaceOnUse"><stop stop-color="#C2C4CE"></stop><stop offset="0.397" stop-color="#D6D9E2"></stop><stop offset="1" stop-color="#fff"></stop></linearGradient><linearGradient id="7f2cd425-30dd-42c7-9a55-bbd10c8c97c2__515bca" x1="106.283" y1="265.313" x2="193.978" y2="153.158" gradientUnits="userSpaceOnUse"><stop stop-color="#C2C4CE"></stop><stop offset="0.397" stop-color="#D6D9E2"></stop><stop offset="1" stop-color="#fff"></stop></linearGradient><radialGradient id="7f2cd425-30dd-42c7-9a55-bbd10c8c97c2__203c49" cx="0" cy="0" r="1" gradientUnits="userSpaceOnUse" gradientTransform="matrix(0 256 -256 0 128 0)"><stop stop-color="#005ED9"></stop><stop offset="1" stop-color="#003386"></stop></radialGradient></defs><path d="M0 80c0-28.003 0-42.004 5.45-52.7A50 50 0 0 1 27.3 5.45C37.996 0 51.998 0 80 0h96c28.003 0 42.004 0 52.7 5.45a49.995 49.995 0 0 1 21.85 21.85C256 37.996 256 51.998 256 80v96c0 28.003 0 42.004-5.45 52.7a49.99 49.99 0 0 1-21.85 21.85C218.004 256 204.003 256 176 256H80c-28.003 0-42.004 0-52.7-5.45A49.995 49.995 0 0 1 5.45 228.7C0 218.004 0 204.003 0 176V80Z" fill="url(#7f2cd425-30dd-42c7-9a55-bbd10c8c97c2__4428f8)" role="bgRoundedSquare" class=""></path><path d="M187.998 67h-7.999v7.999h7.999V67Z" fill="url(#7f2cd425-30dd-42c7-9a55-bbd10c8c97c2__0aa8ae)" role="bgRoundedSquare" class=""></path><path d="M160.01 123.02v-16.026l.004.005h15.993v15.997H192v5.071c0 5.861-.498 12.806-1.644 18.26-.642 3.048-1.615 6.077-2.756 8.986-1.169 2.976-2.516 5.827-3.982 8.382a62.78 62.78 0 0 1-6.695 9.547l-.136.158-.224.262c-.617.724-1.227 1.44-1.898 2.139a63.215 63.215 0 0 1-2.415 2.415c-10.237 9.859-23.575 16.017-37.521 17.431-1.678.172-5.047.35-6.729.35-1.687-.005-5.051-.178-6.729-.35-13.946-1.414-27.284-7.577-37.52-17.431a63.155 63.155 0 0 1-2.416-2.415c-.704-.729-1.339-1.477-1.98-2.233l-.002-.002-.276-.324a62.662 62.662 0 0 1-6.695-9.547c-1.466-2.559-2.813-5.406-3.983-8.382-1.14-2.909-2.113-5.938-2.755-8.986-1.146-5.459-1.644-12.399-1.644-18.26V68.002h31.99v55.018s0 4.218.053 5.598l.012.322v.002c.067 1.785.133 3.534.319 5.274.527 4.941 1.62 9.628 3.872 13.592.652 1.145 1.313 2.257 2.104 3.311 4.812 6.417 12.135 11.234 21.27 12.576 1.087.158 3.282.297 4.38.297 1.098 0 3.292-.139 4.38-.297 9.135-1.342 16.458-6.159 21.27-12.576.795-1.054 1.452-2.166 2.104-3.311 2.252-3.964 3.345-8.651 3.872-13.592.186-1.744.252-3.495.319-5.284l.012-.314c.053-1.38.053-5.598.053-5.598Z" fill="url(#7f2cd425-30dd-42c7-9a55-bbd10c8c97c2__3d0891)" role="bgRoundedSquare" class=""></path><path d="M164.002 79h12v11.996H192v15.998h-15.998V91.001h-12v-12Z" fill="url(#7f2cd425-30dd-42c7-9a55-bbd10c8c97c2__63b14f)" role="bgRoundedSquare" class=""></path><defs><linearGradient id="7f2cd425-30dd-42c7-9a55-bbd10c8c97c2__0aa8ae" x1="106.283" y1="265.313" x2="193.978" y2="153.158" gradientUnits="userSpaceOnUse"><stop stop-color="#C2C4CE"></stop><stop offset="0.397" stop-color="#D6D9E2"></stop><stop offset="1" stop-color="#fff"></stop></linearGradient><linearGradient id="7f2cd425-30dd-42c7-9a55-bbd10c8c97c2__3d0891" x1="106.283" y1="265.313" x2="193.978" y2="153.158" gradientUnits="userSpaceOnUse"><stop stop-color="#C2C4CE"></stop><stop offset="0.397" stop-color="#D6D9E2"></stop><stop offset="1" stop-color="#fff"></stop></linearGradient><linearGradient id="7f2cd425-30dd-42c7-9a55-bbd10c8c97c2__63b14f" x1="106.283" y1="265.313" x2="193.978" y2="153.158" gradientUnits="userSpaceOnUse"><stop stop-color="#C2C4CE"></stop><stop offset="0.397" stop-color="#D6D9E2"></stop><stop offset="1" stop-color="#fff"></stop></linearGradient><radialGradient id="7f2cd425-30dd-42c7-9a55-bbd10c8c97c2__4428f8" cx="0" cy="0" r="1" gradientUnits="userSpaceOnUse" gradientTransform="matrix(0 256 -256 0 128 0)"><stop stop-color="#005ED9"></stop><stop offset="1" stop-color="#003386"></stop></radialGradient></defs><path d="M187.998 67h-7.999v7.999h7.999V67Zm-27.988 56.02v-16.026l.004.005h15.993v15.997H192v5.071c0 5.861-.498 12.806-1.644 18.26-.642 3.048-1.615 6.077-2.756 8.986-1.169 2.976-2.516 5.827-3.982 8.382a62.78 62.78 0 0 1-6.695 9.547l-.136.158-.224.262c-.617.724-1.227 1.44-1.898 2.139a63.215 63.215 0 0 1-2.415 2.415c-10.237 9.859-23.575 16.017-37.521 17.431-1.678.172-5.047.35-6.729.35-1.687-.005-5.051-.178-6.729-.35-13.946-1.414-27.284-7.577-37.52-17.431a63.155 63.155 0 0 1-2.416-2.415c-.704-.729-1.339-1.477-1.98-2.233l-.002-.002-.276-.324a62.662 62.662 0 0 1-6.695-9.547c-1.466-2.559-2.813-5.406-3.983-8.382-1.14-2.909-2.113-5.938-2.755-8.986-1.146-5.459-1.644-12.399-1.644-18.26V68.002h31.99v55.018s0 4.218.053 5.598l.012.322v.002c.067 1.785.133 3.534.319 5.274.527 4.941 1.62 9.628 3.872 13.592.652 1.145 1.313 2.257 2.104 3.311 4.812 6.417 12.135 11.234 21.27 12.576 1.087.158 3.282.297 4.38.297 1.098 0 3.292-.139 4.38-.297 9.135-1.342 16.458-6.159 21.27-12.576.795-1.054 1.452-2.166 2.104-3.311 2.252-3.964 3.345-8.651 3.872-13.592.186-1.744.252-3.495.319-5.284l.012-.314c.053-1.38.053-5.598.053-5.598ZM164.002 79h12v11.996H192v15.998h-15.998V91.001h-12v-12Z" fill="#4797FF" role="aqua" class=""></path><path d="M187.998 67h-7.999v7.999h7.999V67Zm-27.988 56.02v-16.026l.004.005h15.993v15.997H192v5.071c0 5.861-.498 12.806-1.644 18.26-.642 3.048-1.615 6.077-2.756 8.986-1.169 2.976-2.516 5.827-3.982 8.382a62.78 62.78 0 0 1-6.695 9.547l-.136.158-.224.262c-.617.724-1.227 1.44-1.898 2.139a63.215 63.215 0 0 1-2.415 2.415c-10.237 9.859-23.575 16.017-37.521 17.431-1.678.172-5.047.35-6.729.35-1.687-.005-5.051-.178-6.729-.35-13.946-1.414-27.284-7.577-37.52-17.431a63.155 63.155 0 0 1-2.416-2.415c-.704-.729-1.339-1.477-1.98-2.233l-.002-.002-.276-.324a62.662 62.662 0 0 1-6.695-9.547c-1.466-2.559-2.813-5.406-3.983-8.382-1.14-2.909-2.113-5.938-2.755-8.986-1.146-5.459-1.644-12.399-1.644-18.26V68.002h31.99v55.018s0 4.218.053 5.598l.012.322v.002c.067 1.785.133 3.534.319 5.274.527 4.941 1.62 9.628 3.872 13.592.652 1.145 1.313 2.257 2.104 3.311 4.812 6.417 12.135 11.234 21.27 12.576 1.087.158 3.282.297 4.38.297 1.098 0 3.292-.139 4.38-.297 9.135-1.342 16.458-6.159 21.27-12.576.795-1.054 1.452-2.166 2.104-3.311 2.252-3.964 3.345-8.651 3.872-13.592.186-1.744.252-3.495.319-5.284l.012-.314c.053-1.38.053-5.598.053-5.598ZM164.002 79h12v11.996H192v15.998h-15.998V91.001h-12v-12Z" fill="#B7BCC2" role="neutral" class=""></path></svg>